<?xml version="1.0" encoding="UTF-8" standalone="no"?>
<!-- Created with Inkscape (http://www.inkscape.org/) -->

<svg
   xmlns:dc="http://purl.org/dc/elements/1.1/"
   xmlns:cc="http://creativecommons.org/ns#"
   xmlns:rdf="http://www.w3.org/1999/02/22-rdf-syntax-ns#"
   xmlns:svg="http://www.w3.org/2000/svg"
   xmlns="http://www.w3.org/2000/svg"
   xmlns:sodipodi="http://sodipodi.sourceforge.net/DTD/sodipodi-0.dtd"
   xmlns:inkscape="http://www.inkscape.org/namespaces/inkscape"
   width="744"
   height="744"
   id="svg2"
   version="1.1"
   inkscape:version="0.48.2 r9819"
   sodipodi:docname="dot.svg">
  <defs
     id="defs4" />
  <sodipodi:namedview
     id="base"
     pagecolor="#ffffff"
     bordercolor="#666666"
     borderopacity="1.0"
     inkscape:pageopacity="0.0"
     inkscape:pageshadow="2"
     inkscape:zoom="0.49497475"
     inkscape:cx="586.59257"
     inkscape:cy="349.45586"
     inkscape:document-units="px"
     inkscape:current-layer="layer1"
     showgrid="false"
     borderlayer="true"
     inkscape:showpageshadow="false"
     inkscape:window-width="1108"
     inkscape:window-height="677"
     inkscape:window-x="0"
     inkscape:window-y="0"
     inkscape:window-maximized="0" />
  <metadata
     id="metadata7">
    <rdf:RDF>
      <cc:Work
         rdf:about="">
        <dc:format>image/svg+xml</dc:format>
        <dc:type
           rdf:resource="http://purl.org/dc/dcmitype/StillImage" />
        <dc:title></dc:title>
      </cc:Work>
    </rdf:RDF>
  </metadata>
  <g
     inkscape:groupmode="layer"
     id="layer2"
     inkscape:label="shadow"
     sodipodi:insensitive="true">
    <path
       style="fill:#808080;stroke:none"
       d="m 45.812126,656.60954 c -18.87833,7.58771 16.394653,43.69485 112.668034,40.91144 55.43491,-1.6027 84.48082,2.62521 133.04465,-31.3653 135.7486,-16.01404 939.24429,-300.92901 -88.36593,-71.70782 -62.16169,5.82766 -157.346754,62.16168 -157.346754,62.16168 z"
       id="path2992"
       inkscape:connector-curvature="0"
       sodipodi:nodetypes="csccc" />
  </g>
  <g
     inkscape:label="Dot"
     inkscape:groupmode="layer"
     id="layer1"
     transform="translate(0,-308.36218)"
     sodipodi:insensitive="true">
    <path
       style="fill:#1a1a1a;stroke:#000000;stroke-width:30.76846504;stroke-linecap:butt;stroke-linejoin:miter;stroke-opacity:1"
       d="m 160.42273,780.42924 c 83.73798,4.23632 131.44038,52.50234 128.20846,104.89783 -3.23192,52.39549 -4.62974,92.78738 -120.43826,97.12763 C 52.384433,986.79496 46.090626,944.62503 39.984465,893.09729 33.878316,841.56955 76.684724,776.1929 160.42273,780.42924 z"
       id="path2985"
       inkscape:connector-curvature="0"
       sodipodi:nodetypes="zzzzz" />
    <path
       style="fill:#333333;stroke:none"
       d="m 171.66752,795.92109 c 28.00273,19.56154 11.90493,65.6454 -8.85341,84.92705 -20.75831,19.28163 -57.48414,30.98271 -74.659597,22.25356 -17.175476,-8.72916 -36.451661,-17.77861 -32.28535,-53.13917 4.166323,-35.36056 71.924717,-84.68971 115.798357,-54.04144 z"
       id="path2989"
       inkscape:connector-curvature="0"
       sodipodi:nodetypes="szzzs" />
  </g>
</svg>
